<svg width="22" height="13" viewBox="0 0 22 13" fill="none" xmlns="http://www.w3.org/2000/svg">
<path d="M16.3681 3.71457L18.1918 0.555345C18.2948 0.378238 18.2325 0.153264 18.0578 0.0503499C17.8831 -0.0525627 17.6557 0.00726908 17.5552 0.184377L15.7076 3.38428C14.2979 2.74047 12.7111 2.38147 11.0046 2.38147C9.29817 2.38147 7.71138 2.74047 6.3017 3.38428L4.45404 0.184377C4.35113 0.00726908 4.12615 -0.0525627 3.94905 0.0503499C3.77194 0.153264 3.7121 0.378238 3.81502 0.555345L5.63875 3.71457C2.49389 5.41863 0.363815 8.60178 0.0119934 12.3282H21.9973C21.6454 8.60178 19.5154 5.41863 16.3681 3.71457ZM5.95706 9.24081C5.44728 9.24081 5.03562 8.82676 5.03562 8.31937C5.03562 7.80959 5.44967 7.39793 5.95706 7.39793C6.46684 7.39793 6.8785 7.81198 6.8785 8.31937C6.8809 8.82676 6.46684 9.24081 5.95706 9.24081ZM16.0498 9.24081C15.54 9.24081 15.1284 8.82676 15.1284 8.31937C15.1284 7.80959 15.5424 7.39793 16.0498 7.39793C16.5596 7.39793 16.9712 7.81198 16.9712 8.31937C16.9736 8.82676 16.5596 9.24081 16.0498 9.24081Z" fill="white"/>
</svg>
