<svg width="44" height="43" viewBox="0 0 44 43" fill="none" xmlns="http://www.w3.org/2000/svg">
<path d="M13.0111 10.6837L21.9152 19.6423L30.8193 10.6837L21.9152 1.72508L13.0111 10.6837Z" fill="#B4BEC1" stroke="white" stroke-width="2.00157"/>
<path d="M23.8182 21.4933L32.7224 30.452L41.6265 21.4933L32.7223 12.5347L23.8182 21.4933Z" fill="#394D54" stroke="white" stroke-width="2.00157"/>
<path d="M20.083 7.4444H7.92416V19.5474H20.083V7.4444Z" fill="#FCE94F"/>
<path d="M35.7564 23.2295H23.6864V35.3888H35.7564V23.2295Z" fill="#B4BEC1"/>
<path d="M10.9928 30.3681L20.0324 21.4658L10.9928 12.5635L1.9532 21.4658L10.9928 30.3681Z" fill="#4F6A74" stroke="white" stroke-width="2.00167"/>
<path d="M35.8458 7.52844H23.7351V19.6265H35.8458V7.52844Z" fill="#4F6A74"/>
<path d="M21.8001 41.178L30.8398 32.2756L21.8001 23.3733L12.7605 32.2756L21.8001 41.178Z" fill="#8A9AA0" stroke="white" stroke-width="2.00167"/>
<path d="M20.083 7.01697H7.47382V19.5528H20.083V7.01697Z" fill="#8A9AA0" stroke="white" stroke-width="2.00155"/>
<path d="M36.2183 23.2295H23.6864V35.8392H36.2183V23.2295Z" stroke="white" stroke-width="2.00155"/>
<path d="M36.2961 7.09064H23.7318V19.6265H36.2961V7.09064Z" stroke="white" stroke-width="2.00155"/>
<path d="M20.0835 23.2299H7.47485V35.8386H20.0835V23.2299Z" fill="#394D54" stroke="white" stroke-width="2.00155"/>
<path d="M10.9928 30.3681L20.0324 21.4658L10.9928 12.5635L1.9532 21.4658L10.9928 30.3681Z" stroke="white" stroke-width="2.00167"/>
<path d="M13.0109 10.6835L21.9151 19.6422L30.8192 10.6836L21.915 1.72491L13.0109 10.6835Z" stroke="white" stroke-width="2.00157"/>
<path d="M21.8001 41.178L30.8398 32.2756L21.8001 23.3733L12.7605 32.2756L21.8001 41.178Z" stroke="white" stroke-width="2.00167"/>
<path d="M23.8182 21.4932L32.7223 30.4518L41.6264 21.4932L32.7223 12.5346L23.8182 21.4932Z" stroke="white" stroke-width="2.00157"/>
</svg>
