<svg width="32" height="40" viewBox="0 0 32 40" fill="none" xmlns="http://www.w3.org/2000/svg">
<path d="M19.1577 21.0851C18.5231 21.094 19.2777 21.412 20.1062 21.5396C20.3351 21.361 20.5428 21.1802 20.7277 21.0043C20.2117 21.1306 19.6869 21.1333 19.1577 21.0851Z" fill="#D70751"/>
<path d="M22.5639 20.2358C22.9419 19.7145 23.2171 19.1432 23.3143 18.5529C23.2296 18.9738 23.0012 19.3374 22.7859 19.7209C21.5995 20.4677 22.6742 19.2774 22.7852 18.8249C21.5098 20.4304 22.6102 19.7875 22.5639 20.2358Z" fill="#D70751"/>
<path d="M23.8214 16.9643C23.8978 15.8216 23.5964 16.1828 23.4951 16.6189C23.6129 16.6805 23.7069 17.4246 23.8214 16.9643Z" fill="#D70751"/>
<path d="M16.7512 1.34399C17.0898 1.40476 17.4831 1.45138 17.4278 1.5323C17.7981 1.45107 17.8823 1.37615 16.7512 1.34399Z" fill="#D70751"/>
<path d="M17.4278 1.53229L17.1884 1.58152L17.4112 1.56198L17.4278 1.53229Z" fill="#D70751"/>
<path d="M27.9892 17.3977C28.0272 18.424 27.6892 18.9218 27.3843 19.8034L26.836 20.0774C26.3869 20.9491 26.8794 20.6309 26.558 21.3243C25.8571 21.9472 24.4314 23.2735 23.9751 23.3946C23.6423 23.3874 24.2011 23.0017 24.274 22.8504C23.336 23.4947 23.5211 23.8174 22.0868 24.2089L22.0448 24.1155C18.5062 25.7798 13.5914 22.4814 13.6562 17.9807C13.6183 18.2664 13.5488 18.1951 13.4703 18.3106C13.2878 15.9949 14.5398 13.6691 16.6511 12.7194C18.7168 11.6969 21.1377 12.1166 22.6172 13.4954C21.8046 12.4307 20.1872 11.3024 18.2703 11.408C16.3922 11.4377 14.6357 12.6311 14.0494 13.9263C13.0874 14.5321 12.9757 16.2612 12.5565 16.5775C11.9926 20.7226 13.6174 22.5134 16.366 24.6198C16.7986 24.9115 16.4878 24.9558 16.5465 25.1778C15.6332 24.7503 14.7969 24.1046 14.1094 23.3141C14.4743 23.8484 14.868 24.3675 15.3769 24.7755C14.516 24.4837 13.3655 22.6889 13.0298 22.6158C14.514 25.2734 19.0517 27.2766 21.4278 26.2829C20.3285 26.3234 18.9315 26.3054 17.6961 25.8487C17.1775 25.582 16.4718 25.0286 16.5977 24.9252C19.8406 26.1367 23.1906 25.8429 25.9962 23.5937C26.7102 23.0377 27.4898 22.092 27.7151 22.0789C27.3757 22.5892 27.7731 22.3244 27.5123 22.7747C28.2238 21.6277 27.2034 22.3078 28.2475 20.7937L28.6332 21.3249C28.49 20.3729 29.8158 19.2166 29.6814 17.7107C29.9852 17.2501 30.0208 18.2061 29.6978 19.2657C30.1458 18.0903 29.8158 17.9015 29.9311 16.9317C30.0557 17.2575 30.2183 17.604 30.3022 17.948C30.0106 16.8123 30.6018 16.0352 30.748 15.3751C30.6038 15.3112 30.2975 15.8772 30.2275 14.5355C30.2375 13.9527 30.3897 14.2301 30.4483 14.0867C30.3338 14.0211 30.0338 13.5744 29.8514 12.7175C29.9837 12.5163 30.2052 13.2395 30.3852 13.2692C30.2694 12.5878 30.07 12.0684 30.0617 11.5458C29.5354 10.446 29.8754 11.6924 29.4486 11.0737C28.8885 9.32644 29.9134 10.668 29.9825 9.87429C30.8317 11.1043 31.3158 13.0107 31.5378 13.8003C31.3682 12.8375 31.0943 11.9049 30.7597 11.0026C31.0177 11.1111 30.3445 9.02182 31.0951 10.4054C30.2935 7.45582 27.664 4.69967 25.2451 3.40644C25.5411 3.67721 25.9149 4.01736 25.7806 4.07059C24.5777 3.35429 24.7892 3.29859 24.6168 2.99598C23.6369 2.59736 23.5725 3.02798 22.9234 2.99659C21.0765 2.0169 20.7206 2.12121 19.0206 1.50721L19.0978 1.86859C17.8743 1.46105 17.6725 2.02321 16.3498 1.86998C16.2694 1.80705 16.7734 1.64244 17.1886 1.58213C16.0055 1.73828 16.0611 1.34906 14.9034 1.62506C15.1888 1.4249 15.4903 1.29244 15.7946 1.12213C14.8298 1.18075 13.4914 1.68352 13.9045 1.22629C12.3298 1.92921 9.53477 2.9149 7.96646 4.38552L7.91707 4.05598C7.1983 4.91875 4.78307 6.63259 4.59061 7.74998L4.39846 7.79475C4.02446 8.42798 3.78246 9.14567 3.48584 9.79721C2.99661 10.6306 2.76876 10.118 2.83846 10.2486C1.87646 12.1992 1.39861 13.8381 0.985687 15.1823C1.27984 15.622 0.992764 17.8294 1.10399 19.5958C0.620764 28.3203 7.22707 36.7912 14.4481 38.7466C15.5066 39.1249 17.0805 39.1103 18.4194 39.1494C16.8397 38.6975 16.6355 38.91 15.0971 38.3734C13.9871 37.8506 13.7437 37.2538 12.9575 36.5717L13.2686 37.1214C11.7269 36.5757 12.3718 36.446 11.1175 36.0487L11.4498 35.6149C10.95 35.5771 10.1262 34.7726 9.90077 34.3271L9.35415 34.3486C8.69723 33.538 8.34723 32.9543 8.37277 32.5017L8.19615 32.8166C7.996 32.4727 5.77938 29.7767 6.92938 30.4044C6.71569 30.2089 6.43169 30.0864 6.12369 29.5271L6.35784 29.2595C5.80446 28.5477 5.33923 27.6346 5.37461 27.3309C5.66984 27.7297 5.87461 27.804 6.07738 27.8724C4.68 24.4049 4.60153 27.6814 3.54292 24.3429L3.76692 24.3251C3.59523 24.0663 3.49107 23.7857 3.35307 23.51L3.45046 22.5387C2.44415 21.3754 3.16907 17.5924 3.314 15.5177C3.41476 14.6738 4.15384 13.7758 4.71615 12.3674L4.37353 12.3083C5.0283 11.1663 8.11215 7.72152 9.54015 7.89875C10.2323 7.02967 9.40292 7.89567 9.26753 7.67675C10.7872 6.10398 11.2651 6.56567 12.2906 6.28275C13.3968 5.62613 11.3414 6.53875 11.8658 6.03229C13.7777 5.54398 13.2209 4.92213 15.7152 4.67413C15.9783 4.82382 15.1046 4.90536 14.8852 5.09967C16.4782 4.32029 19.9266 4.49752 22.1662 5.53213C24.7654 6.7469 27.6851 10.3371 27.8003 13.7151L27.9314 13.7503C27.8651 15.0932 28.1369 16.646 27.6657 18.0724L27.9888 17.3978" fill="#D70751"/>
<path d="M12.2308 21.9562L12.1418 22.4013C12.5588 22.9679 12.8897 23.5817 13.4223 24.0246C13.0392 23.2765 12.7545 22.9674 12.2308 21.9562Z" fill="#D70751"/>
<path d="M13.2167 21.9176C12.996 21.6734 12.8654 21.3796 12.7191 21.0868C12.8589 21.6014 13.1454 22.0436 13.412 22.4934L13.2167 21.9176Z" fill="#D70751"/>
<path d="M30.6646 18.1252L30.5715 18.3591C30.4006 19.5732 30.0314 20.7746 29.4655 21.8885C30.0902 20.7132 30.4948 19.4277 30.664 18.1252" fill="#D70751"/>
<path d="M16.8766 1.03955C17.3057 0.882315 17.9312 0.953392 18.3865 0.849854C17.7934 0.8997 17.2029 0.929391 16.6197 1.00447L16.8766 1.03955Z" fill="#D70751"/>
<path d="M1.81245 9.04987C1.91122 9.9654 1.12369 10.3206 1.98692 9.7171C2.44953 8.6751 1.80615 9.4294 1.81245 9.04987Z" fill="#D70751"/>
<path d="M0.798149 13.2865C0.996918 12.6762 1.03292 12.3097 1.10892 11.9565C0.559534 12.6589 0.856149 12.8086 0.798149 13.2865Z" fill="#D70751"/>
</svg>
