<svg width="17" height="20" viewBox="0 0 17 20" fill="none" xmlns="http://www.w3.org/2000/svg">
<g clip-path="url(#clip0)">
<path d="M16.4933 15.5866C16.1908 16.2853 15.8328 16.9285 15.418 17.5198C14.8526 18.326 14.3896 18.884 14.0329 19.1939C13.4798 19.7025 12.8872 19.963 12.2527 19.9778C11.7971 19.9778 11.2478 19.8482 10.6083 19.5852C9.96669 19.3235 9.37709 19.1939 8.83797 19.1939C8.27256 19.1939 7.66616 19.3235 7.01754 19.5852C6.36793 19.8482 5.84461 19.9852 5.4445 19.9988C4.83601 20.0247 4.22948 19.7568 3.62407 19.1939C3.23767 18.8568 2.75435 18.2791 2.17536 17.4606C1.55414 16.5865 1.04342 15.573 0.643311 14.4175C0.214807 13.1693 0 11.9607 0 10.7907C0 9.45032 0.28962 8.29431 0.869723 7.32557C1.32563 6.54745 1.93216 5.93364 2.69127 5.48304C3.45038 5.03243 4.27059 4.80281 5.1539 4.78812C5.63721 4.78812 6.27102 4.93762 7.05865 5.23144C7.84405 5.52625 8.34836 5.67575 8.56946 5.67575C8.73476 5.67575 9.29499 5.50094 10.2447 5.15243C11.1428 4.82923 11.9008 4.69541 12.5218 4.74812C14.2045 4.88392 15.4686 5.54723 16.3093 6.74226C14.8044 7.65408 14.06 8.9312 14.0748 10.5695C14.0884 11.8457 14.5514 12.9076 15.4612 13.7508C15.8735 14.1422 16.334 14.4446 16.8463 14.6594C16.7352 14.9816 16.6179 15.2903 16.4933 15.5866ZM12.6341 0.400602C12.6341 1.40083 12.2687 2.33474 11.5403 3.19916C10.6614 4.22678 9.59819 4.82059 8.44527 4.72689C8.43057 4.60689 8.42206 4.4806 8.42206 4.34789C8.42206 3.38767 8.84007 2.36005 9.58239 1.51983C9.95299 1.09441 10.4243 0.740678 10.9959 0.458501C11.5663 0.180534 12.1058 0.0268124 12.6131 0.000488281C12.628 0.134203 12.6341 0.267926 12.6341 0.400589V0.400602Z" fill="white"/>
</g>
<defs>
<clipPath id="clip0">
<rect width="16.8464" height="20" fill="white"/>
</clipPath>
</defs>
</svg>
