<svg width="37" height="37" viewBox="0 0 37 37" fill="none" xmlns="http://www.w3.org/2000/svg">
<path d="M36.8334 18.4996C36.8334 28.6251 28.626 36.8333 18.5005 36.8333C8.37493 36.8333 0.166779 28.6251 0.166779 18.4996C0.166779 8.3747 8.37506 0.166809 18.5005 0.166809C28.626 0.166809 36.8334 8.37457 36.8334 18.4996Z" fill="#E95420"/>
<path d="M8.98543 18.4996C8.98543 19.8014 7.93005 20.857 6.62734 20.857C5.32619 20.857 4.27081 19.8015 4.27081 18.4996C4.27081 17.1983 5.32619 16.1429 6.62734 16.1429C7.93005 16.1429 8.98543 17.1983 8.98543 18.4996ZM22.3958 29.961C23.0469 31.0875 24.4879 31.4739 25.6153 30.8237C26.7426 30.1727 27.1288 28.7309 26.4779 27.6035C25.827 26.4762 24.3859 26.0907 23.2586 26.7416C22.1312 27.3927 21.7449 28.8337 22.3958 29.961ZM26.4778 9.39635C27.1287 8.26879 26.7432 6.82742 25.6152 6.17717C24.4885 5.52627 23.0469 5.91251 22.3957 7.03956C21.7448 8.16686 22.1311 9.60809 23.2585 10.259C24.3859 10.9099 25.8277 10.5236 26.4778 9.39635ZM18.5004 11.7781C22.0127 11.7781 24.8948 14.4704 25.1958 17.9047L28.6071 17.8509C28.4451 15.2992 27.3383 13.0042 25.6326 11.312C24.7297 11.6604 23.6821 11.613 22.7783 11.0909C21.8739 10.5687 21.309 9.68467 21.1596 8.72695C20.3119 8.4967 19.4201 8.37343 18.5004 8.37343C16.8873 8.37343 15.3625 8.75062 14.0084 9.42157L15.6683 12.4022C16.5285 12.0025 17.4891 11.7781 18.5004 11.7781ZM11.7781 18.4996C11.7781 16.226 12.9079 14.2153 14.6364 12.9996L12.885 10.0718C10.8562 11.4267 9.34503 13.4933 8.70745 15.9163C9.46196 16.5239 9.94535 17.4552 9.94535 18.4997C9.94535 19.5449 9.46183 20.4762 8.70745 21.0839C9.34503 23.5068 10.8562 25.5735 12.885 26.9291L14.6364 24.0013C12.9079 22.7846 11.7781 20.7748 11.7781 18.4996ZM18.5004 25.2224C17.4893 25.2224 16.5286 24.9981 15.6683 24.5976L14.0084 27.5783C15.3625 28.2498 16.8871 28.6266 18.5004 28.6266C19.42 28.6266 20.3119 28.5042 21.1596 28.2736C21.3089 27.3152 21.8738 26.4312 22.7783 25.9099C23.6821 25.3877 24.7297 25.3402 25.6326 25.6886C27.3384 23.9956 28.4451 21.7007 28.6071 19.149L25.1958 19.096C24.8947 22.5294 22.0127 25.2224 18.5004 25.2224Z" fill="white"/>
</svg>
